HIERARCHY
ROOT Hips
{
  OFFSET 5.72205e-005 65.662 3.42586
  CHANNELS 6 Xposition Yposition Zposition Zrotation Xrotation Yrotation
  JOINT Chest
  {
    OFFSET 0 8.7983 -4.7612
    CHANNELS 6 Xposition Yposition Zposition Zrotation Xrotation Yrotation
    JOINT Chest2
    {
      OFFSET 0 8.0291 0.4195
      CHANNELS 6 Xposition Yposition Zposition Zrotation Xrotation Yrotation
      JOINT Chest3
      {
        OFFSET 0 9.9351 -2.2114
        CHANNELS 6 Xposition Yposition Zposition Zrotation Xrotation Yrotation
        JOINT Neck
        {
          OFFSET 0 22.3885 -0.4656
          CHANNELS 6 Xposition Yposition Zposition Zrotation Xrotation Yrotation
          JOINT Head
          {
            OFFSET -0.0001 12.643 3.4389
            CHANNELS 6 Xposition Yposition Zposition Zrotation Xrotation Yrotation
            End Site
            {
              OFFSET 0.0001 17.6655 0.5274
            }
          }
        }
        JOINT LeftCollar
        {
          OFFSET 2.2603 21.606 7.4023
          CHANNELS 6 Xposition Yposition Zposition Zrotation Xrotation Yrotation
          JOINT LeftShoulder
          {
            OFFSET 13.5163 -1.1332 -5.0146
            CHANNELS 6 Xposition Yposition Zposition Zrotation Xrotation Yrotation
            JOINT LeftElbow
            {
              OFFSET -0.0995 -28.05 -0.2431
              CHANNELS 6 Xposition Yposition Zposition Zrotation Xrotation Yrotation
              JOINT LeftWrist
              {
                OFFSET 0.0679 -23.3996 -0.1402
                CHANNELS 6 Xposition Yposition Zposition Zrotation Xrotation Yrotation
                JOINT LeftFinger1
                {
                  OFFSET 0.7932 -9.069 2.5189
                  CHANNELS 6 Xposition Yposition Zposition Zrotation Xrotation Yrotation
                  JOINT LeftFinger11
                  {
                    OFFSET -0.8272 -3.3923 0.5977
                    CHANNELS 6 Xposition Yposition Zposition Zrotation Xrotation Yrotation
                    JOINT LeftFinger12
                    {
                      OFFSET -0.5649 -2.3158 0.4082
                      CHANNELS 6 Xposition Yposition Zposition Zrotation Xrotation Yrotation
                      End Site
                      {
                        OFFSET -0.4919 -1.6479 0.2673
                      }
                    }
                  }
                }
                JOINT LeftFinger2
                {
                  OFFSET 0.9159 -9.2044 0.2193
                  CHANNELS 6 Xposition Yposition Zposition Zrotation Xrotation Yrotation
                  JOINT LeftFinger21
                  {
                    OFFSET 0.0117 -4.1944 -0.0248
                    CHANNELS 6 Xposition Yposition Zposition Zrotation Xrotation Yrotation
                    JOINT LeftFinger22
                    {
                      OFFSET 0.0071 -2.3249 -0.0142
                      CHANNELS 6 Xposition Yposition Zposition Zrotation Xrotation Yrotation
                      End Site
                      {
                        OFFSET -0.1475 -2.0882 0.0028
                      }
                    }
                  }
                }
                JOINT LeftFinger3
                {
                  OFFSET 0.6113 -8.7231 -2.0637
                  CHANNELS 6 Xposition Yposition Zposition Zrotation Xrotation Yrotation
                  JOINT LeftFinger31
                  {
                    OFFSET -0.1927 -3.8059 -0.2383
                    CHANNELS 6 Xposition Yposition Zposition Zrotation Xrotation Yrotation
                    JOINT LeftFinger32
                    {
                      OFFSET -0.1091 -2.1688 -0.1362
                      CHANNELS 6 Xposition Yposition Zposition Zrotation Xrotation Yrotation
                      End Site
                      {
                        OFFSET -0.2358 -1.9176 -0.0906
                      }
                    }
                  }
                }
                JOINT LeftFinger4
                {
                  OFFSET -0.6151 -8.0947 -3.5641
                  CHANNELS 6 Xposition Yposition Zposition Zrotation Xrotation Yrotation
                  JOINT LeftFinger41
                  {
                    OFFSET -0.4882 -2.341 -0.6462
                    CHANNELS 6 Xposition Yposition Zposition Zrotation Xrotation Yrotation
                    JOINT LeftFinger42
                    {
                      OFFSET -0.3575 -1.7167 -0.4742
                      CHANNELS 6 Xposition Yposition Zposition Zrotation Xrotation Yrotation
                      End Site
                      {
                        OFFSET -0.4187 -1.5237 -0.3496
                      }
                    }
                  }
                }
                JOINT LeftFinger0
                {
                  OFFSET -1.42 -1.8761 1.4223
                  CHANNELS 6 Xposition Yposition Zposition Zrotation Xrotation Yrotation
                  JOINT LeftFinger01
                  {
                    OFFSET -1.1471 -3.4929 2.6334
                    CHANNELS 6 Xposition Yposition Zposition Zrotation Xrotation Yrotation
                    JOINT LeftFinger02
                    {
                      OFFSET -0.823 -2.3 1.6571
                      CHANNELS 6 Xposition Yposition Zposition Zrotation Xrotation Yrotation
                      End Site
                      {
                        OFFSET -0.5822 -1.6914 1.1582
                      }
                    }
                  }
                }
              }
            }
          }
        }
        JOINT RightCollar
        {
          OFFSET -2.2603 21.606 7.4023
          CHANNELS 6 Xposition Yposition Zposition Zrotation Xrotation Yrotation
          JOINT RightShoulder
          {
            OFFSET -13.5187 -1.1334 -5.0155
            CHANNELS 6 Xposition Yposition Zposition Zrotation Xrotation Yrotation
            JOINT RightElbow
            {
              OFFSET 0.0994 -28.0499 -0.2431
              CHANNELS 6 Xposition Yposition Zposition Zrotation Xrotation Yrotation
              JOINT RightWrist
              {
                OFFSET -0.0679 -23.3996 -0.1402
                CHANNELS 6 Xposition Yposition Zposition Zrotation Xrotation Yrotation
                JOINT RightFinger1
                {
                  OFFSET -0.7932 -9.0691 2.5189
                  CHANNELS 6 Xposition Yposition Zposition Zrotation Xrotation Yrotation
                  JOINT RightFinger11
                  {
                    OFFSET 0.8272 -3.3923 0.5977
                    CHANNELS 6 Xposition Yposition Zposition Zrotation Xrotation Yrotation
                    JOINT RightFinger12
                    {
                      OFFSET 0.565 -2.3158 0.4082
                      CHANNELS 6 Xposition Yposition Zposition Zrotation Xrotation Yrotation
                      End Site
                      {
                        OFFSET 0.4919 -1.6479 0.2673
                      }
                    }
                  }
                }
                JOINT RightFinger2
                {
                  OFFSET -0.916 -9.2044 0.2193
                  CHANNELS 6 Xposition Yposition Zposition Zrotation Xrotation Yrotation
                  JOINT RightFinger21
                  {
                    OFFSET -0.0117 -4.1944 -0.0248
                    CHANNELS 6 Xposition Yposition Zposition Zrotation Xrotation Yrotation
                    JOINT RightFinger22
                    {
                      OFFSET -0.0071 -2.3249 -0.0142
                      CHANNELS 6 Xposition Yposition Zposition Zrotation Xrotation Yrotation
                      End Site
                      {
                        OFFSET 0.1475 -2.0882 0.0028
                      }
                    }
                  }
                }
                JOINT RightFinger3
                {
                  OFFSET -0.6113 -8.7231 -2.0637
                  CHANNELS 6 Xposition Yposition Zposition Zrotation Xrotation Yrotation
                  JOINT RightFinger31
                  {
                    OFFSET 0.1927 -3.8059 -0.2383
                    CHANNELS 6 Xposition Yposition Zposition Zrotation Xrotation Yrotation
                    JOINT RightFinger32
                    {
                      OFFSET 0.1091 -2.1688 -0.1362
                      CHANNELS 6 Xposition Yposition Zposition Zrotation Xrotation Yrotation
                      End Site
                      {
                        OFFSET 0.2358 -1.9176 -0.0906
                      }
                    }
                  }
                }
                JOINT RightFinger4
                {
                  OFFSET 0.6151 -8.0947 -3.564
                  CHANNELS 6 Xposition Yposition Zposition Zrotation Xrotation Yrotation
                  JOINT RightFinger41
                  {
                    OFFSET 0.4882 -2.341 -0.6462
                    CHANNELS 6 Xposition Yposition Zposition Zrotation Xrotation Yrotation
                    JOINT RightFinger42
                    {
                      OFFSET 0.3574 -1.7166 -0.4742
                      CHANNELS 6 Xposition Yposition Zposition Zrotation Xrotation Yrotation
                      End Site
                      {
                        OFFSET 0.4187 -1.5237 -0.3496
                      }
                    }
                  }
                }
                JOINT RightFinger0
                {
                  OFFSET 1.4199 -1.8761 1.4221
                  CHANNELS 6 Xposition Yposition Zposition Zrotation Xrotation Yrotation
                  JOINT RightFinger01
                  {
                    OFFSET 1.1472 -3.4929 2.6336
                    CHANNELS 6 Xposition Yposition Zposition Zrotation Xrotation Yrotation
                    JOINT RightFinger02
                    {
                      OFFSET 0.8229 -2.3 1.6571
                      CHANNELS 6 Xposition Yposition Zposition Zrotation Xrotation Yrotation
                      End Site
                      {
                        OFFSET 0.5822 -1.6914 1.1582
                      }
                    }
                  }
                }
              }
            }
          }
        }
      }
    }
  }
  JOINT RightHip
  {
    OFFSET -9.412 3.9771 -0.7758
    CHANNELS 6 Xposition Yposition Zposition Zrotation Xrotation Yrotation
    JOINT RightKnee
    {
      OFFSET -0.7531 -40.938 0
      CHANNELS 6 Xposition Yposition Zposition Zrotation Xrotation Yrotation
      JOINT RightAnkle
      {
        OFFSET 0 -40.1986 0
        CHANNELS 6 Xposition Yposition Zposition Zrotation Xrotation Yrotation
        JOINT RightToe
        {
          OFFSET 0 -4.4182 9.239
          CHANNELS 6 Xposition Yposition Zposition Zrotation Xrotation Yrotation
          End Site
          {
            OFFSET 0 0 6.1981
          }
        }
      }
    }
  }
  JOINT LeftHip
  {
    OFFSET 9.4119 3.9773 -0.7758
    CHANNELS 6 Xposition Yposition Zposition Zrotation Xrotation Yrotation
    JOINT LeftKnee
    {
      OFFSET 0.7532 -40.9383 0
      CHANNELS 6 Xposition Yposition Zposition Zrotation Xrotation Yrotation
      JOINT LeftAnkle
      {
        OFFSET 0 -40.1986 0
        CHANNELS 6 Xposition Yposition Zposition Zrotation Xrotation Yrotation
        JOINT LeftToe
        {
          OFFSET 0 -4.4182 9.239
          CHANNELS 6 Xposition Yposition Zposition Zrotation Xrotation Yrotation
          End Site
          {
            OFFSET 0 0 6.1981
          }
        }
      }
    }
  }
}
MOTION
Frames:	4
Frame Time:	0.0333333
-1.00195 0.0963974 11.2289 3.17579e-007 -81.9773 3.65316e-007 2.22045e-016 8.7983 -4.7612 -0.039996 3.5981 -0.121679 0 8.0291 0.4195 -0.0725333 7.19626 -0.241553 0 9.9351 -2.2114 -0.0725334 7.19629 -0.241553 0 22.3885 -0.4656 18.0079 18.9711 1.96448 -0.0001 12.643 3.4389 11.064 6.21622 11.7856 2.2603 21.606 7.4023 7.58545 12.6444 -0.830515 13.5163 -1.1332 -5.0146 -3.00371 34.6275 28.2036 -0.0995 -28.05 -0.2431 -50.8576 -71.1033 -77.0909 0.0679 -23.3996 -0.1402 -10.5901 3.06028 -28.2285 0.7932 -9.069 2.5189 -1.69009e-006 -2.31711e-008 -2.2177e-007 -0.8272 -3.3923 0.5977 7.95139e-016 -1.59028e-015 9.98893e-015 -0.5649 -2.3158 0.4082 3.97569e-016 -1.59028e-015 3.47873e-016 0.9159 -9.2044 0.2193 -1.69009e-006 -2.31711e-008 -2.2177e-007 0.0117 -4.1944 -0.0248 -0.0128166 0.00230627 8.50398e-005 0.0071 -2.3249 -0.0142 -3.97569e-016 0 1.3418e-015 0.6113 -8.7231 -2.0637 -1.69009e-006 -2.31711e-008 -2.2177e-007 -0.1927 -3.8059 -0.2383 -0.0160621 0.00299606 0.00085315 -0.1091 -2.1688 -0.1362 -2.87902e-006 1.24866e-005 3.57523e-006 -0.6151 -8.0947 -3.5641 -1.69009e-006 -2.31711e-008 -2.2177e-007 -0.4882 -2.341 -0.6462 -0.0125771 0.00311943 0.00283072 -0.3575 -1.7167 -0.4742 0 0 -1.03368e-014 -1.42 -1.8761 1.4223 -1.69009e-006 -2.31711e-008 -2.2177e-007 -1.1471 -3.4929 2.6334 7.95139e-016 -1.59028e-015 9.98893e-015 -0.823 -2.3 1.6571 3.97569e-016 -1.59028e-015 3.47873e-016 -2.2603 21.606 7.4023 -8.81448 12.9024 -4.38352 -13.5187 -1.1334 -5.0155 -0.534679 36.1073 -21.1253 0.0994 -28.0499 -0.2431 50.6342 -72.8325 76.3413 -0.0679 -23.3996 -0.1402 10.2094 2.49474 28.5288 -0.7932 -9.0691 2.5189 1.79141e-006 -3.20464e-006 -1.83979e-006 0.8272 -3.3923 0.5977 -7.95139e-016 0 9.93923e-017 0.565 -2.3158 0.4082 0 0 -9.74045e-015 -0.916 -9.2044 0.2193 1.79141e-006 -3.20464e-006 -1.83979e-006 -0.0117 -4.1944 -0.0248 0.0129349 0.00232924 -8.83406e-005 -0.0071 -2.3249 -0.0142 7.95139e-016 0 3.97569e-015 -0.6113 -8.7231 -2.0637 1.79141e-006 -3.20464e-006 -1.83979e-006 0.1927 -3.8059 -0.2383 0.0163303 0.00303669 -0.000875446 0.1091 -2.1688 -0.1362 2.38542e-015 1.59028e-015 -6.95746e-016 0.6151 -8.0947 -3.564 1.79141e-006 -3.20464e-006 -1.83979e-006 0.4882 -2.341 -0.6462 0.0146149 0.00369557 -0.00327335 0.3574 -1.7166 -0.4742 -1.87591e-031 -3.18055e-015 -3.37934e-015 1.4199 -1.8761 1.4221 1.79141e-006 -3.20464e-006 -1.83979e-006 1.1472 -3.4929 2.6336 -7.95139e-016 0 9.93923e-017 0.8229 -2.3 1.6571 0 0 -9.74045e-015 -9.412 3.9771 -0.7758 -60.6689 -11.0156 2.80237 -0.7531 -40.938 -4.44089e-016 1.9658 41.181 -2.12646 1.06581e-014 -40.1986 0 -1.54756 15.5599 -2.99584 7.10543e-015 -4.4182 9.239 4.77083e-015 2.38542e-015 6.36111e-015 9.4119 3.9773 -0.7758 59.7345 -44.0222 20.0557 0.7532 -40.9383 7.10543e-015 -174.168 72.5391 176.027 0 -40.1986 0 1.26072 12.314 3.51128 0 -4.4182 9.239 -1.76556e-031 1.59028e-015 6.36111e-015 
-0.99914 0.0656967 11.2803 -1.12983e-007 -81.752 -9.944e-008 0 8.7983 -4.7612 -0.0394907 3.48615 -0.121909 0 8.0291 0.4195 -0.0717336 6.97235 -0.24208 0 9.9351 -2.2114 -0.0717338 6.97238 -0.242081 2.22045e-016 22.3885 -0.4656 17.9747 18.671 2.06744 -0.0001 12.643 3.4389 11.0547 5.76379 11.8745 2.2603 21.606 7.4023 7.77647 12.9931 -0.764628 13.5163 -1.1332 -5.0146 -3.17606 34.6528 28.2846 -0.0995 -28.05 -0.2431 -50.8576 -71.1033 -77.0908 0.0679 -23.3996 -0.1402 -10.7202 3.09876 -28.3531 0.7932 -9.069 2.5189 1.98785e-015 -1.59028e-015 -1.66482e-014 -0.8272 -3.3923 0.5977 -3.97569e-016 -3.18055e-015 -3.926e-015 -0.5649 -2.3158 0.4082 1.98785e-015 -3.18055e-015 -3.97569e-015 0.9159 -9.2044 0.2193 1.98785e-015 -1.59028e-015 -1.66482e-014 0.0117 -4.1944 -0.0248 -0.0128456 0.00232702 9.02825e-005 0.0071 -2.3249 -0.0142 3.97569e-016 -1.59028e-015 7.10655e-015 0.6113 -8.7231 -2.0637 1.98785e-015 -1.59028e-015 -1.66482e-014 -0.1927 -3.8059 -0.2383 -0.016061 0.00301592 0.0008659 -0.1091 -2.1688 -0.1362 7.95139e-016 3.18055e-015 -7.25564e-015 -0.6151 -8.0947 -3.5641 1.98785e-015 -1.59028e-015 -1.66482e-014 -0.4882 -2.341 -0.6462 -0.0125897 0.00312007 0.00282384 -0.3575 -1.7167 -0.4742 -1.98785e-015 1.59028e-015 1.96797e-014 -1.42 -1.8761 1.4223 1.98785e-015 -1.59028e-015 -1.66482e-014 -1.1471 -3.4929 2.6334 -3.97569e-016 -3.18055e-015 -3.926e-015 -0.823 -2.3 1.6571 1.98785e-015 -3.18055e-015 -3.97569e-015 -2.2603 21.606 7.4023 -9.01774 13.2499 -4.44119 -13.5187 -1.1334 -5.0155 -0.364909 36.1521 -21.2043 0.0994 -28.0499 -0.2431 50.634 -72.8325 76.3412 -0.0679 -23.3996 -0.1402 10.341 2.53201 28.6572 -0.7932 -9.0691 2.5189 2.94054e-006 6.43566e-006 -4.94639e-006 0.8272 -3.3923 0.5977 -1.59028e-015 0 7.55382e-015 0.565 -2.3158 0.4082 -7.95139e-016 -1.59028e-015 9.93923e-016 -0.916 -9.2044 0.2193 2.94054e-006 6.43566e-006 -4.94639e-006 -0.0117 -4.1944 -0.0248 0.0129397 0.00231992 -8.37164e-005 -0.0071 -2.3249 -0.0142 -3.18055e-015 0 -6.06293e-015 -0.6113 -8.7231 -2.0637 2.94054e-006 6.43566e-006 -4.94639e-006 0.1927 -3.8059 -0.2383 0.0163402 0.00303358 -0.000871799 0.1091 -2.1688 -0.1362 1.59028e-015 3.18055e-015 1.37161e-014 0.6151 -8.0947 -3.564 2.94054e-006 6.43566e-006 -4.94639e-006 0.4882 -2.341 -0.6462 0.0145568 0.00366464 -0.00325272 0.3574 -1.7166 -0.4742 5.00304e-006 9.89287e-006 -3.03505e-006 1.4199 -1.8761 1.4221 2.94054e-006 6.43566e-006 -4.94639e-006 1.1472 -3.4929 2.6336 -1.59028e-015 0 7.55382e-015 0.8229 -2.3 1.6571 -7.95139e-016 -1.59028e-015 9.93923e-016 -9.412 3.9771 -0.7758 -60.7458 -11.2863 2.33341 -0.7531 -40.938 -1.33227e-015 1.961 41.5969 -2.14049 -3.55272e-015 -40.1986 0 -1.37408 15.5366 -3.07214 3.55271e-015 -4.4182 9.239 1.26029e-005 3.5012e-005 1.54152e-005 9.4119 3.9773 -0.7758 59.8308 -44.2168 20.1465 0.7532 -40.9383 -8.88179e-016 -174.172 72.5408 176.028 0 -40.1986 0 1.10563 12.3096 3.56982 3.55271e-015 -4.4182 9.239 -2.47902e-006 -4.27441e-006 -1.73773e-006 
-0.996278 0.0349808 11.3316 2.89795e-007 -81.5267 3.75965e-007 0 8.7983 -4.7612 -0.0389854 3.3742 -0.122136 0 8.0291 0.4195 -0.0709359 6.74846 -0.2426 2.22045e-016 9.9351 -2.2114 -0.0709361 6.74847 -0.242601 2.22045e-016 22.3885 -0.4656 17.9421 18.3708 2.17005 -0.0001 12.643 3.4389 11.0461 5.311 11.9634 2.2603 21.606 7.4023 7.96734 13.3421 -0.699865 13.5163 -1.1332 -5.0146 -3.34851 34.678 28.3657 -0.0995 -28.05 -0.2431 -50.8577 -71.1033 -77.0909 0.0679 -23.3996 -0.1402 -10.8502 3.13753 -28.4776 0.7932 -9.069 2.5189 5.19702e-006 4.52911e-006 -1.40495e-006 -0.8272 -3.3923 0.5977 -1.98785e-015 -4.77083e-015 1.98785e-015 -0.5649 -2.3158 0.4082 -3.97569e-016 0 1.83876e-015 0.9159 -9.2044 0.2193 5.19702e-006 4.52911e-006 -1.40495e-006 0.0117 -4.1944 -0.0248 -0.0128258 0.00233284 8.51772e-005 0.0071 -2.3249 -0.0142 7.95139e-016 -3.18055e-015 2.18663e-015 0.6113 -8.7231 -2.0637 5.19702e-006 4.52911e-006 -1.40495e-006 -0.1927 -3.8059 -0.2383 -0.0160687 0.00298144 0.000859702 -0.1091 -2.1688 -0.1362 1.59028e-015 1.27222e-014 -1.39149e-015 -0.6151 -8.0947 -3.5641 5.19702e-006 4.52911e-006 -1.40495e-006 -0.4882 -2.341 -0.6462 -0.0125966 0.00311773 0.00282896 -0.3575 -1.7167 -0.4742 1.59028e-015 0 -8.00108e-015 -1.42 -1.8761 1.4223 5.19702e-006 4.52911e-006 -1.40495e-006 -1.1471 -3.4929 2.6334 -1.98785e-015 -4.77083e-015 1.98785e-015 -0.823 -2.3 1.6571 -3.97569e-016 0 1.83876e-015 -2.2603 21.606 7.4023 -9.22094 13.5977 -4.49766 -13.5187 -1.1334 -5.0155 -0.19501 36.1967 -21.2835 0.0994 -28.0499 -0.2431 50.634 -72.8325 76.3412 -0.0679 -23.3996 -0.1402 10.4725 2.56956 28.7855 -0.7932 -9.0691 2.5189 1.59028e-015 1.59028e-015 -1.68967e-014 0.8272 -3.3923 0.5977 7.95139e-016 0 -1.97791e-014 0.565 -2.3158 0.4082 7.95139e-016 3.18055e-015 -9.93923e-015 -0.916 -9.2044 0.2193 1.59028e-015 1.59028e-015 -1.68967e-014 -0.0117 -4.1944 -0.0248 0.012942 0.00232309 -7.8485e-005 -0.0071 -2.3249 -0.0142 -1.0483e-031 1.59028e-015 3.77691e-015 -0.6113 -8.7231 -2.0637 1.59028e-015 1.59028e-015 -1.68967e-014 0.1927 -3.8059 -0.2383 0.0163513 0.00303433 -0.000871359 0.1091 -2.1688 -0.1362 7.95139e-016 -1.59028e-015 -3.97569e-016 0.6151 -8.0947 -3.564 1.59028e-015 1.59028e-015 -1.68967e-014 0.4882 -2.341 -0.6462 0.0145619 0.0036798 -0.00325647 0.3574 -1.7166 -0.4742 -7.95139e-016 1.59028e-015 6.55989e-015 1.4199 -1.8761 1.4221 1.59028e-015 1.59028e-015 -1.68967e-014 1.1472 -3.4929 2.6336 7.95139e-016 0 -1.97791e-014 0.8229 -2.3 1.6571 7.95139e-016 3.18055e-015 -9.93923e-015 -9.412 3.9771 -0.7758 -60.8251 -11.556 1.86367 -0.7531 -40.938 -4.44089e-016 1.95597 42.0119 -2.15436 -7.10543e-015 -40.1986 0 -1.2005 15.5135 -3.14836 0 -4.4182 9.239 1.36774e-005 1.92857e-005 6.45037e-006 9.4119 3.9773 -0.7758 59.9226 -44.4151 20.2344 0.7532 -40.9383 4.44089e-015 -174.171 72.5402 176.03 0 -40.1986 0 0.950591 12.305 3.62836 7.10543e-015 -4.4182 9.239 3.18055e-015 -1.30053e-006 -0 
-0.993385 0.00423431 11.3829 -0 -81.3014 -0 0 8.7983 -4.7612 -0.0384805 3.2623 -0.12236 1.11022e-016 8.0291 0.4195 -0.0701405 6.52464 -0.243114 2.22045e-016 9.9351 -2.2114 -0.0701405 6.52464 -0.243114 0 22.3885 -0.4656 17.9101 18.0704 2.27235 -0.0001 12.643 3.4389 11.0382 4.858 12.0521 2.2603 21.606 7.4023 8.15805 13.6911 -0.636197 13.5163 -1.1332 -5.0146 -3.52102 34.7029 28.447 -0.0995 -28.05 -0.2431 -50.8576 -71.1032 -77.0908 0.0679 -23.3996 -0.1402 -10.9802 3.17657 -28.6021 0.7932 -9.069 2.5189 -7.95139e-016 -1.59028e-015 1.13804e-014 -0.8272 -3.3923 0.5977 -1.19271e-015 0 7.95139e-015 -0.5649 -2.3158 0.4082 -1.19271e-015 -3.18055e-015 8.10048e-015 0.9159 -9.2044 0.2193 -7.95139e-016 -1.59028e-015 1.13804e-014 0.0117 -4.1944 -0.0248 -0.0128303 0.00232879 8.84234e-005 0.0071 -2.3249 -0.0142 2.38542e-015 1.11319e-014 5.61567e-015 0.6113 -8.7231 -2.0637 -7.95139e-016 -1.59028e-015 1.13804e-014 -0.1927 -3.8059 -0.2383 -0.0160311 0.00299294 0.000861434 -0.1091 -2.1688 -0.1362 2.38542e-015 0 2.03754e-015 -0.6151 -8.0947 -3.5641 -7.95139e-016 -1.59028e-015 1.13804e-014 -0.4882 -2.341 -0.6462 -0.0126168 0.003139 0.00283841 -0.3575 -1.7167 -0.4742 5.20396e-006 4.90117e-006 -1.39336e-006 -1.42 -1.8761 1.4223 -7.95139e-016 -1.59028e-015 1.13804e-014 -1.1471 -3.4929 2.6334 -1.19271e-015 0 7.95139e-015 -0.823 -2.3 1.6571 -1.19271e-015 -3.18055e-015 8.10048e-015 -2.2603 21.606 7.4023 -9.42405 13.9456 -4.55295 -13.5187 -1.1334 -5.0155 -0.0248149 36.2412 -21.363 0.0994 -28.0499 -0.2431 50.6341 -72.8325 76.3412 -0.0679 -23.3996 -0.1402 10.604 2.60739 28.9137 -0.7932 -9.0691 2.5189 3.18055e-015 1.59028e-015 1.68967e-015 0.8272 -3.3923 0.5977 7.95139e-016 1.59028e-015 -1.78906e-015 0.565 -2.3158 0.4082 1.59028e-015 1.59028e-015 -1.88845e-015 -0.916 -9.2044 0.2193 3.18055e-015 1.59028e-015 1.68967e-015 -0.0117 -4.1944 -0.0248 0.0129442 0.00231272 -8.11039e-005 -0.0071 -2.3249 -0.0142 7.95139e-016 -1.59028e-015 -6.95746e-015 -0.6113 -8.7231 -2.0637 3.18055e-015 1.59028e-015 1.68967e-015 0.1927 -3.8059 -0.2383 0.0163328 0.00303215 -0.00086684 0.1091 -2.1688 -0.1362 2.09661e-031 -3.18055e-015 3.77691e-015 0.6151 -8.0947 -3.564 3.18055e-015 1.59028e-015 1.68967e-015 0.4882 -2.341 -0.6462 0.0145901 0.00367369 -0.00325783 0.3574 -1.7166 -0.4742 3.31043e-032 4.77083e-015 -3.97569e-016 1.4199 -1.8761 1.4221 3.18055e-015 1.59028e-015 1.68967e-015 1.1472 -3.4929 2.6336 7.95139e-016 1.59028e-015 -1.78906e-015 0.8229 -2.3 1.6571 1.59028e-015 1.59028e-015 -1.88845e-015 -9.412 3.9771 -0.7758 -60.9068 -11.8247 1.39311 -0.7531 -40.938 8.88178e-016 1.95073 42.426 -2.16801 -1.06581e-014 -40.1986 7.10543e-015 -1.02676 15.4907 -3.22452 -3.55271e-015 -4.4182 9.239 1.30148e-006 1.66878e-006 -1.09099e-006 9.4119 3.9773 -0.7758 60.0141 -44.6141 20.3223 0.7532 -40.9383 2.66454e-015 -174.17 72.539 176.033 -7.10543e-015 -40.1986 7.10543e-015 0.795548 12.3 3.68691 0 -4.4182 9.239 2.64834e-031 4.77083e-015 -3.18055e-015 
